<?xml version="1.0" standalone="no"?>
<!DOCTYPE svg PUBLIC "-//W3C//DTD SVG 20010904//EN"
 "http://www.w3.org/TR/2001/REC-SVG-20010904/DTD/svg10.dtd">
<svg version="1.0" xmlns="http://www.w3.org/2000/svg"
 width="557.000000pt" height="557.000000pt" viewBox="0 0 557.000000 557.000000"
 preserveAspectRatio="xMidYMid meet">
<metadata>
Created by potrace 1.14, written by Peter Selinger 2001-2017
</metadata>
<g transform="translate(0.000000,557.000000) scale(0.100000,-0.100000)"
fill="#000000" stroke="none">
<path d="M599 4075 c-268 -53 -483 -252 -566 -525 l-26 -85 -2 -659 c-2 -665
-1 -688 35 -802 57 -183 201 -348 381 -436 156 -77 75 -72 1217 -75 827 -3
1022 -1 1023 9 0 7 1 592 2 1301 l2 1287 -1000 -1 c-786 -1 -1014 -4 -1066
-14z m1632 -607 c0 -164 0 -1151 -1 -1199 0 -9 -71 54 -161 144 l-161 160
-149 -149 c-82 -82 -149 -153 -149 -158 0 -4 74 -82 165 -173 91 -90 165 -167
165 -169 0 -3 -285 -3 -632 -2 l-633 3 -58 28 c-71 36 -119 83 -155 156 l-27
56 -1 610 c-2 651 -1 663 48 737 39 59 118 118 188 139 14 4 370 8 793 8 l767
1 1 -192z"/>
<path d="M3012 3875 l-1 -215 805 0 c442 0 804 -2 804 -4 0 -3 -103 -105 -290
-286 -135 -131 -562 -545 -689 -670 -60 -58 -225 -219 -368 -358 l-260 -252
-1 -301 0 -302 41 41 c23 22 79 75 123 119 45 43 200 193 345 335 422 410 463
449 470 446 4 -2 123 -115 264 -253 142 -137 298 -290 349 -338 50 -49 150
-147 223 -218 l132 -129 307 0 307 0 -19 21 c-21 24 -210 210 -342 337 -46 44
-203 197 -350 340 -147 143 -334 325 -415 404 l-149 143 104 102 c57 56 142
139 189 185 156 151 610 592 676 656 80 78 106 126 105 195 0 90 -45 161 -126
198 -39 18 -89 19 -1137 19 l-1096 0 -1 -215z"/>
</g>
</svg>
