<?xml version="1.0" encoding="UTF-8"?>
<svg id="Capa_1" data-name="Capa 1" xmlns="http://www.w3.org/2000/svg" version="1.1" viewBox="0 0 20 20">
  <defs>
    <style>
      .cls-1 {
        fill: #0533fb;
      }

      .cls-1, .cls-2 {
        stroke-width: 0px;
      }

      .cls-2 {
        fill: #fff;
      }
    </style>
  </defs>
  <circle class="cls-2" cx="10" cy="10" r="9.5"/>
  <path class="cls-1" d="M12.82,4.84c0,.56.01,1.11.02,1.67-.12,0-.33,0-.58,0-.47,0-.55-.02-.7.03-.06.02-.37.14-.54.47-.08.16-.1.32-.1.41v1.33h1.83c-.1.64-.19,1.28-.29,1.91h-1.56v4.61h-2.09c0-1.54.01-3.07.02-4.61h-1.65c0-.64-.01-1.29-.02-1.93.57,0,1.14-.01,1.7-.02-.02-.54-.03-1.07-.05-1.61,0-.21.04-.53.18-.89.08-.19.35-.86,1.04-1.23.36-.19.67-.22,1.14-.26.4-.03.97-.04,1.65.11Z"/>
</svg>