<?xml version="1.0" encoding="UTF-8"?>
<svg id="Capa_1" data-name="Capa 1" xmlns="http://www.w3.org/2000/svg" version="1.1" viewBox="0 0 20 20">
  <defs>
    <style>
      .cls-1 {
        fill: #0533fb;
      }

      .cls-1, .cls-2 {
        stroke-width: 0px;
      }

      .cls-2 {
        fill: #fff;
      }
    </style>
  </defs>
  <circle class="cls-2" cx="10" cy="10" r="9.5"/>
  <g>
    <circle class="cls-1" cx="6.66" cy="6.56" r="1.07"/>
    <rect class="cls-1" x="5.73" y="8.42" width="1.83" height="5.91"/>
    <path class="cls-1" d="M12.63,14.35c.62,0,1.24-.01,1.86-.02,0-1.23-.01-2.46-.02-3.69,0-.14-.01-.34-.05-.57-.04-.27-.08-.5-.21-.76-.04-.09-.21-.42-.59-.69-.45-.33-.91-.36-1.14-.38-.45-.03-.79.08-.86.1-.35.12-.58.3-.72.41-.09.07-.22.18-.35.33v-.67h-1.83v5.91h1.83v-3.34c0-.08.01-.21.06-.34.12-.35.38-.53.47-.59.08-.06.23-.15.45-.19.1-.02.37-.06.64.1.21.12.3.3.34.38.11.22.12.42.12.52v3.48Z"/>
  </g>
</svg>