<?xml version="1.0" encoding="UTF-8"?>
<svg id="Capa_1" data-name="Capa 1" xmlns="http://www.w3.org/2000/svg" version="1.1" viewBox="0 0 20 20">
  <defs>
    <style>
      .cls-1 {
        fill: #0533fb;
      }

      .cls-1, .cls-2 {
        stroke-width: 0px;
      }

      .cls-2 {
        fill: #fff;
      }
    </style>
  </defs>
  <circle class="cls-2" cx="10" cy="10" r="9.5"/>
  <g>
    <path class="cls-1" d="M12.14,5.14h-4.29c-1.5,0-2.71,1.21-2.71,2.71v4.29c0,1.5,1.21,2.71,2.71,2.71h4.29c1.5,0,2.71-1.21,2.71-2.71v-4.29c0-1.5-1.21-2.71-2.71-2.71ZM14.01,12.06c0,1.09-.89,1.98-1.98,1.98h-4.05c-1.09,0-1.98-.89-1.98-1.98v-4.05c0-1.09.89-1.98,1.98-1.98h4.05c1.09,0,1.98.89,1.98,1.98v4.05Z"/>
    <path class="cls-1" d="M10,7.48c-1.41,0-2.54,1.14-2.54,2.54s1.14,2.54,2.54,2.54,2.54-1.14,2.54-2.54-1.14-2.54-2.54-2.54ZM10,11.62c-.89,0-1.61-.72-1.61-1.61s.72-1.61,1.61-1.61,1.61.72,1.61,1.61-.72,1.61-1.61,1.61Z"/>
    <circle class="cls-1" cx="12.59" cy="7.4" r=".6"/>
  </g>
</svg>