<?xml version="1.0" encoding="UTF-8"?>
<svg id="Capa_1" data-name="Capa 1" xmlns="http://www.w3.org/2000/svg" version="1.1" viewBox="0 0 53.33 25">
  <defs>
    <style>
      .cls-1 {
        fill: #fff;
        stroke-width: 0px;
      }
    </style>
  </defs>
  <g id="HORIZONTAL">
    <g>
      <path class="cls-1" d="M.3,7.28v10.44c0,3.9,3.17,7.07,7.07,7.07h18.09V.21H7.37C3.47.21.3,3.38.3,7.28ZM21.41,17.65l-3.08-3.08-2.88,2.88,3.28,3.28H7.37c-1.66,0-3.02-1.35-3.02-3.02V7.28c0-1.66,1.35-3.02,3.02-3.02h14.04v13.39Z"/>
      <path class="cls-1" d="M40.91,13.01l9.59-9.32c.59-.58.78-1.45.47-2.22s-1.05-1.26-1.88-1.26h-20.3v4.05h15.3l-15.3,14.87v5.65l9.21-8.95,9.22,8.96h5.82l-12.12-11.78Z"/>
    </g>
  </g>
</svg>