<?xml version="1.0" encoding="UTF-8"?>
<svg id="Capa_1" data-name="Capa 1" xmlns="http://www.w3.org/2000/svg" version="1.1" viewBox="0 0 120.95 25">
  <defs>
    <style>
      .cls-1 {
        fill: #0533fb;
      }

      .cls-1, .cls-2 {
        stroke-width: 0px;
      }

      .cls-2 {
        fill: #fff;
      }
    </style>
  </defs>
  <g id="HORIZONTAL">
    <g>
      <path class="cls-1" d="M.07,7.28v10.44c0,3.9,3.17,7.07,7.07,7.07h18.09V.21H7.14C3.24.21.07,3.38.07,7.28ZM21.18,17.65l-3.08-3.08-2.88,2.88,3.28,3.28H7.14c-1.66,0-3.02-1.35-3.02-3.02V7.28c0-1.66,1.35-3.02,3.02-3.02h14.04v13.39Z"/>
      <path class="cls-1" d="M40.68,13.01l9.59-9.32c.59-.58.78-1.45.47-2.22s-1.05-1.26-1.88-1.26h-20.3v4.05h15.3l-15.3,14.87v5.65l9.21-8.95,9.22,8.96h5.82l-12.12-11.78Z"/>
    </g>
    <g>
      <path class="cls-2" d="M60.79,12.53c-.8-.09-1.54-.21-1.54-.93,0-.6.47-.92,1.34-.92.73,0,1.12.29,1.39.82.07.14.13.16.27.1l.34-.15c.15-.06.18-.14.11-.28-.39-.82-.99-1.23-2.11-1.23-1.38,0-2.14.7-2.14,1.71,0,1.34,1.17,1.5,2.16,1.62.75.09,1.43.21,1.43.91s-.5,1-1.46,1c-.72,0-1.2-.31-1.46-.92-.06-.15-.13-.18-.27-.13l-.33.12c-.15.06-.19.12-.13.27.35.91.99,1.38,2.19,1.38,1.46,0,2.24-.68,2.24-1.75,0-1.3-1.07-1.51-2.03-1.62Z"/>
      <path class="cls-2" d="M68.39,9.95c-1.46,0-2.25.79-2.25,2.06v1.83c0,1.27.8,2.06,2.25,2.06s2.24-.79,2.24-2.06v-1.83c0-1.27-.8-2.06-2.24-2.06ZM69.87,13.84c0,.85-.52,1.34-1.47,1.34s-1.48-.48-1.48-1.34v-1.83c0-.85.52-1.34,1.48-1.34s1.47.48,1.47,1.34v1.83Z"/>
      <path class="cls-2" d="M77.56,15.06h-2.53v-4.78c0-.15-.06-.21-.21-.21h-.35c-.16,0-.22.06-.22.21v5.29c0,.15.06.21.22.21h3.1c.16,0,.21-.06.21-.21v-.3c0-.16-.05-.22-.21-.22Z"/>
      <path class="cls-2" d="M85.05,10.07h-.35c-.15,0-.21.06-.21.21v3.56c0,.84-.47,1.34-1.42,1.34s-1.43-.51-1.43-1.34v-3.56c0-.15-.05-.21-.21-.21h-.35c-.15,0-.21.06-.21.21v3.55c0,1.26.74,2.08,2.2,2.08s2.2-.81,2.2-2.08v-3.55c0-.15-.05-.21-.21-.21Z"/>
      <path class="cls-2" d="M92.58,10.07h-3.87c-.15,0-.21.06-.21.21v.3c0,.16.06.22.21.22h1.55v4.78c0,.15.05.21.21.21h.35c.15,0,.21-.06.21-.21v-4.78h1.54c.16,0,.21-.06.21-.22v-.3c0-.15-.05-.21-.21-.21Z"/>
      <path class="cls-2" d="M96.65,10.07h-.35c-.16,0-.22.06-.22.21v5.29c0,.15.06.21.22.21h.35c.15,0,.21-.06.21-.21v-5.29c0-.15-.06-.21-.21-.21Z"/>
      <path class="cls-2" d="M102.71,9.95c-1.46,0-2.25.79-2.25,2.06v1.83c0,1.27.8,2.06,2.25,2.06s2.24-.79,2.24-2.06v-1.83c0-1.27-.8-2.06-2.24-2.06ZM104.18,13.84c0,.85-.52,1.34-1.47,1.34s-1.48-.48-1.48-1.34v-1.83c0-.85.52-1.34,1.48-1.34s1.47.48,1.47,1.34v1.83Z"/>
      <path class="cls-2" d="M112.73,10.07h-.33c-.15,0-.21.06-.21.21v2.91c0,.72.14,1.38.14,1.55h-.04c-.1-.14-.33-.74-.7-1.28l-2.26-3.29c-.04-.06-.09-.1-.21-.1h-.35c-.16,0-.22.06-.22.21v5.29c0,.15.06.21.22.21h.32c.16,0,.22-.06.22-.21v-2.98c0-.68-.13-1.35-.13-1.5h.03c.09.12.32.74.65,1.24l2.3,3.35c.06.08.1.1.22.1h.35c.16,0,.21-.06.21-.21v-5.29c0-.15-.05-.21-.21-.21Z"/>
      <path class="cls-2" d="M118.85,12.53c-.8-.09-1.54-.21-1.54-.93,0-.6.47-.92,1.34-.92.73,0,1.12.29,1.39.82.07.14.13.16.27.1l.34-.15c.15-.06.19-.14.11-.28-.39-.82-.99-1.23-2.11-1.23-1.38,0-2.14.7-2.14,1.71,0,1.34,1.17,1.5,2.16,1.62.75.09,1.43.21,1.43.91s-.5,1-1.46,1c-.72,0-1.2-.31-1.46-.92-.06-.15-.13-.18-.27-.13l-.33.12c-.15.06-.18.12-.13.27.35.91.99,1.38,2.19,1.38,1.46,0,2.24-.68,2.24-1.75,0-1.3-1.07-1.51-2.03-1.62Z"/>
    </g>
  </g>
</svg>