<?xml version="1.0" encoding="UTF-8"?>
<svg id="Capa_1" data-name="Capa 1" xmlns="http://www.w3.org/2000/svg" version="1.1" viewBox="0 0 20 20">
  <defs>
    <style>
      .cls-1 {
        fill: #0533fb;
      }

      .cls-1, .cls-2 {
        stroke-width: 0px;
      }

      .cls-2 {
        fill: #fff;
      }
    </style>
  </defs>
  <circle class="cls-2" cx="10" cy="10" r="9.5"/>
  <path class="cls-1" d="M15.6,8.88c-.03-.44-.02-.11-.14-1.13-.01-.1-.03-.25-.1-.44-.11-.29-.28-.46-.33-.51-.2-.2-.41-.29-.47-.31-.14-.05-.25-.07-.3-.08-.89-.13-1.27-.13-1.27-.13-.81,0-.45-.06-2.02-.08-.88-.01-.67.01-2.09.01,0,0-1.64,0-2.38.08-.25.03-.32.05-.64.08-.17.01-.27.02-.43.07-.14.04-.24.1-.34.16-.15.08-.26.16-.35.23-.08.12-.2.3-.3.53-.13.32-.18.6-.22,1.34-.04.7-.04,1.24-.04,1.57,0,.64.03.99.04,1.14.02.31.02.15.09.85.04.37.05.52.13.73.03.08.11.25.25.44.07.09.16.21.31.33.2.14.39.19.52.22.69.15,1.18.17,1.18.17,1.52.05,1.22.06,1.86.07.35,0,.82,0,1.38-.03,0,0,.96,0,2.33-.04,1.14-.03.27-.03,1.13-.07.08,0,.39-.02.78-.09.23-.04.35-.08.47-.14.06-.03.24-.13.42-.31.06-.06.16-.17.25-.35.04-.08.06-.15.08-.21.19-1.05.25-1.93.26-2.59,0-.64-.02-1.12-.05-1.51ZM8.8,11.9v-3.43l3.02,1.73-3.02,1.7Z"/>
</svg>